<svg width="30" height="31" viewBox="0 0 30 31" fill="none" xmlns="http://www.w3.org/2000/svg">
<path fill-rule="evenodd" clip-rule="evenodd" d="M25.4316 19.7982C25.4316 19.7982 27.7416 22.2724 28.313 23.4173C28.3241 23.4338 28.3328 23.4521 28.3387 23.4715C28.5716 23.8945 28.6287 24.226 28.5144 24.4708C28.3216 24.8751 27.6687 25.0781 27.4473 25.0951H23.3644C23.0801 25.0951 22.4887 25.0146 21.7687 24.4754C21.2187 24.0587 20.6716 23.3724 20.1416 22.7015C19.3501 21.7054 18.6659 20.8409 17.973 20.8409C17.8855 20.8407 17.7986 20.8564 17.7159 20.8873C17.1916 21.0671 16.5259 21.8773 16.5259 24.0354C16.5259 24.7109 16.0344 25.0951 15.6901 25.0951H13.8201C13.183 25.0951 9.86585 24.8535 6.92442 21.49C3.32013 17.3721 0.0829859 9.11139 0.0515573 9.03857C-0.149871 8.50408 0.272986 8.21281 0.730129 8.21281H4.85299C5.40585 8.21281 5.58585 8.57534 5.71156 8.90069C5.85728 9.27406 6.39728 10.7676 7.28299 12.4454C8.71728 15.1752 9.59871 16.286 10.303 16.286C10.4353 16.2865 10.5654 16.249 10.6801 16.1776C11.6001 15.6291 11.4287 12.0658 11.3859 11.3315C11.3859 11.189 11.3844 9.74039 10.913 9.04012C10.5759 8.53816 10.0016 8.34295 9.65442 8.27169C9.74728 8.12606 9.94442 7.90296 10.1973 7.77127C10.8273 7.43044 11.9659 7.38086 13.0959 7.38086H13.723C14.9487 7.39945 15.2659 7.48466 15.7116 7.60705C16.6087 7.83944 16.6259 8.46999 16.5473 10.6173C16.5244 11.2308 16.5001 11.9218 16.5001 12.7351C16.5001 12.9086 16.493 13.1023 16.493 13.299C16.4659 14.4006 16.4301 15.6415 17.1473 16.1512C17.2403 16.2141 17.3477 16.2474 17.4573 16.2473C17.7059 16.2473 18.4501 16.2473 20.4687 12.4903C21.3544 10.8311 22.0401 8.87435 22.0873 8.72717C22.1273 8.64506 22.2473 8.41422 22.393 8.32126C22.4967 8.26145 22.6128 8.23158 22.7302 8.2345H27.5802C28.1087 8.2345 28.4673 8.32126 28.5373 8.53816C28.6544 8.88984 28.5144 9.96348 26.3002 13.2107C25.9273 13.7514 25.6002 14.2193 25.313 14.6283C23.3059 17.4852 23.3059 17.6292 25.4316 19.7982Z" fill="#9550A1"/>
</svg>
